<svg width="28" height="28" viewBox="0 0 28 28" fill="none" xmlns="http://www.w3.org/2000/svg">
<path d="M14.0001 0.666748C6.64008 0.666748 0.666748 6.64008 0.666748 14.0001C0.666748 21.3601 6.64008 27.3334 14.0001 27.3334C21.3601 27.3334 27.3334 21.3601 27.3334 14.0001C27.3334 6.64008 21.3601 0.666748 14.0001 0.666748ZM14.0001 24.6667C8.12008 24.6667 3.33341 19.8801 3.33341 14.0001C3.33341 8.12008 8.12008 3.33341 14.0001 3.33341C19.8801 3.33341 24.6667 8.12008 24.6667 14.0001C24.6667 19.8801 19.8801 24.6667 14.0001 24.6667ZM20.1201 8.10675L11.3334 16.8934L7.88008 13.4534L6.00008 15.3334L11.3334 20.6667L22.0001 10.0001L20.1201 8.10675Z" fill="#5A6A72"/>
</svg>
