<svg width="92" height="40" viewBox="0 0 92 40" fill="none" xmlns="http://www.w3.org/2000/svg">
<path fill-rule="evenodd" clip-rule="evenodd" d="M48.6396 6.18335C53.9708 6.18335 58.7283 8.62381 61.8433 12.4431C63.403 10.5319 65.3738 8.96552 67.6222 7.87797C69.228 9.26751 71.3261 10.1094 73.6205 10.1094C76.3382 10.1094 78.7799 8.92889 80.4517 7.05589C83.6495 8.12053 86.4222 10.1049 88.4529 12.6933C89.8762 14.5036 90.936 16.6086 91.5234 18.9025L84.4054 22.1437L82.3242 23.091L81.2998 23.5576L68.2081 29.5168C69.9244 31.3212 72.3537 32.4469 75.0469 32.4469C77.8612 32.4469 80.3871 31.2175 82.1096 29.2713C83.3 27.9283 84.1077 26.2424 84.3655 24.3819H92C91.8698 26.0957 91.4835 27.7379 90.8777 29.2713C88.3977 35.5523 82.2446 40 75.0469 40C69.7157 40 64.9582 37.5595 61.8433 33.7403C58.7283 37.5595 53.9708 40 48.6396 40C39.2503 40 31.6386 32.4301 31.6386 23.0925C31.6386 13.7533 39.2503 6.18335 48.6396 6.18335ZM30.4592 6.18337L30.4592 31.94C30.4592 35.7261 27.346 38.781 23.5394 38.7302L23.2323 38.7193C20.7856 38.5775 18.5925 37.1388 17.5038 34.9376L6.9553 13.613L6.9553 38.8224H0L0 12.9461C0 9.2112 3.04447 6.18337 6.80019 6.18337C9.39179 6.18337 11.7581 7.64838 12.9019 9.96103L23.5023 31.3914L23.5023 6.18337L30.4592 6.18337ZM48.6396 13.738C43.4451 13.738 39.2335 17.9264 39.2335 23.0925C39.2335 28.2585 43.4451 32.4469 48.6396 32.4469C53.8343 32.4469 58.0459 28.2585 58.0459 23.0925C58.0459 17.9264 53.8343 13.738 48.6396 13.738ZM75.0469 13.738C69.8568 13.738 65.6483 17.9188 65.6408 23.0771L81.1832 16.0015C79.536 14.5922 77.3918 13.738 75.0469 13.738ZM81.1127 0C81.1602 0.333967 81.1832 0.674242 81.1832 1.02038C81.1832 5.17516 77.7968 8.54294 73.6205 8.54294C71.9933 8.54294 70.4872 8.03203 69.2541 7.16413C71.5684 5.7258 73.1083 3.16948 73.1083 0.254736C73.1083 0.169307 73.1067 0.0854283 73.1037 0L81.1127 0Z" fill="white"/>
</svg>
