<svg width="20" height="19" viewBox="0 0 20 19" fill="none" xmlns="http://www.w3.org/2000/svg">
<path d="M5.63301 4.03333L4.13301 2.54166L2.95801 3.71666L4.44967 5.20833L5.63301 4.03333ZM0.833008 8.75H3.33301V10.4167H0.833008V8.75ZM9.16634 0.458328H10.833V2.91666H9.16634V0.458328ZM15.8663 2.5375L17.0397 3.71L15.548 5.20166L14.3755 4.02833L15.8663 2.5375ZM14.3663 15.1333L15.858 16.6333L17.033 15.4583L15.533 13.9667L14.3663 15.1333ZM16.6663 8.75H19.1663V10.4167H16.6663V8.75ZM9.99967 4.58333C7.24134 4.58333 4.99967 6.825 4.99967 9.58333C4.99967 12.3417 7.24134 14.5833 9.99967 14.5833C12.758 14.5833 14.9997 12.3417 14.9997 9.58333C14.9997 6.825 12.758 4.58333 9.99967 4.58333ZM9.16634 16.25H10.833V18.7083H9.16634V16.25ZM2.95801 15.45L4.13301 16.625L5.62467 15.125L4.44967 13.95L2.95801 15.45Z" fill="#A85D18"/>
</svg>
